<?xml version="1.0" standalone="no"?>
<!DOCTYPE svg PUBLIC "-//W3C//DTD SVG 20010904//EN"
 "http://www.w3.org/TR/2001/REC-SVG-20010904/DTD/svg10.dtd">
<svg version="1.0" xmlns="http://www.w3.org/2000/svg"
 width="344.000000pt" height="344.000000pt" viewBox="0 0 344.000000 344.000000"
 preserveAspectRatio="xMidYMid meet">
<metadata>
Created by potrace 1.11, written by Peter Selinger 2001-2013
</metadata>
<g transform="translate(0.000000,344.000000) scale(0.100000,-0.100000)"
fill="#000000" stroke="none">
<path d="M2073 3010 c-5 -20 -14 -20 -625 -20 l-620 0 -29 -29 -29 -29 0
-1140 c0 -1133 0 -1139 20 -1165 21 -27 74 -47 123 -47 l27 0 0 -125 c0 -142
2 -146 67 -90 23 19 47 35 53 35 7 0 30 -16 51 -35 65 -58 69 -53 69 90 l0
125 444 0 c385 0 445 -2 450 -15 8 -21 176 -22 176 -2 0 10 25 17 84 24 49 6
104 20 132 34 65 31 130 98 162 167 l27 57 0 945 0 945 -27 55 c-60 122 -166
192 -300 198 -65 3 -77 7 -81 23 -5 17 -15 19 -87 19 -73 0 -82 -2 -87 -20z
m-3 -960 l0 -360 -615 0 -615 0 0 360 0 360 615 0 615 0 0 -360z m520 0 l0
-359 -170 -3 -170 -3 0 363 0 362 170 0 170 0 0 -360z m-1465 -1641 l20 -23
-32 23 c-38 26 -56 49 -27 33 11 -6 28 -20 39 -33z"/>
<path d="M945 2230 c-3 -5 -3 -14 0 -20 4 -6 164 -10 446 -10 414 0 440 1 437
18 -3 16 -33 17 -440 20 -286 1 -439 -1 -443 -8z"/>
<path d="M944 2089 c-3 -6 -2 -15 3 -20 5 -5 187 -8 443 -7 405 3 435 4 438
21 3 16 -23 17 -437 17 -306 0 -442 -3 -447 -11z"/>
</g>
</svg>
